<?xml version="1.0" encoding="UTF-8"?>
<svg xmlns="http://www.w3.org/2000/svg" xmlns:xlink="http://www.w3.org/1999/xlink" width="16pt" height="16pt" viewBox="0 0 16 16" version="1.1">
<g id="surface1">
<path style=" stroke:none;fill-rule:nonzero;fill:rgb(0%,0%,0%);fill-opacity:1;" d="M 11.8125 13.257812 L 4.1875 13.257812 C 3.371094 13.257812 2.703125 12.589844 2.703125 11.773438 L 2.703125 4.148438 C 2.703125 3.332031 3.371094 2.664062 4.1875 2.664062 L 11.8125 2.664062 C 12.628906 2.664062 13.296875 3.332031 13.296875 4.148438 L 13.296875 11.773438 C 13.296875 12.589844 12.628906 13.257812 11.8125 13.257812 Z M 10.570312 5.347656 L 5.558594 5.347656 L 5.558594 10.359375 L 10.570312 10.359375 Z M 5.699219 0 L 4.765625 0 L 4.765625 2.242188 L 5.699219 2.242188 Z M 7.570312 0 L 6.636719 0 L 6.636719 2.242188 L 7.570312 2.242188 Z M 9.441406 0 L 8.507812 0 L 8.507812 2.242188 L 9.441406 2.242188 Z M 11.3125 0 L 10.378906 0 L 10.378906 2.242188 L 11.3125 2.242188 Z M 2.28125 10.300781 L 0 10.300781 L 0 11.234375 L 2.28125 11.234375 Z M 2.28125 8.429688 L 0 8.429688 L 0 9.363281 L 2.28125 9.363281 Z M 2.28125 6.558594 L 0 6.558594 L 0 7.492188 L 2.28125 7.492188 Z M 2.28125 4.6875 L 0 4.6875 L 0 5.621094 L 2.28125 5.621094 Z M 16 10.300781 L 13.71875 10.300781 L 13.71875 11.234375 L 16 11.234375 Z M 16 8.429688 L 13.71875 8.429688 L 13.71875 9.363281 L 16 9.363281 Z M 16 6.558594 L 13.71875 6.558594 L 13.71875 7.492188 L 16 7.492188 Z M 16 4.6875 L 13.71875 4.6875 L 13.71875 5.621094 L 16 5.621094 Z M 5.699219 13.757812 L 4.765625 13.757812 L 4.765625 16 L 5.699219 16 Z M 7.570312 13.757812 L 6.636719 13.757812 L 6.636719 16 L 7.570312 16 Z M 9.441406 13.757812 L 8.507812 13.757812 L 8.507812 16 L 9.441406 16 Z M 11.3125 13.757812 L 10.378906 13.757812 L 10.378906 16 L 11.3125 16 Z M 4.734375 4.027344 C 4.734375 3.644531 4.316406 3.402344 3.984375 3.59375 C 3.652344 3.789062 3.652344 4.269531 3.984375 4.460938 C 4.316406 4.652344 4.734375 4.410156 4.734375 4.027344 Z M 4.734375 4.027344 "/>
</g>
</svg>
